<svg width="1000" height="620" viewBox="0 0 1000 620" fill="none" xmlns="http://www.w3.org/2000/svg">
  <rect width="1000" height="620" rx="36" fill="#07070A"/>
  <rect x="36" y="36" width="928" height="548" rx="30" fill="#0B1020" stroke="rgba(255,255,255,0.12)" stroke-width="2"/>
  <rect x="70" y="76" width="210" height="468" rx="26" fill="#050505" stroke="rgba(255,255,255,0.1)"/>
  <text x="104" y="128" fill="#C4B5FD" font-family="Inter, Arial, sans-serif" font-size="22" font-weight="800">LMS Admin</text>
  <rect x="104" y="174" width="116" height="16" rx="8" fill="#8B5CF6"/>
  <rect x="104" y="220" width="132" height="16" rx="8" fill="#334155"/>
  <rect x="104" y="266" width="96" height="16" rx="8" fill="#334155"/>
  <rect x="104" y="312" width="142" height="16" rx="8" fill="#334155"/>
  <text x="326" y="126" fill="#F8FAFC" font-family="Inter, Arial, sans-serif" font-size="34" font-weight="800">Admin Module Dashboard</text>
  <rect x="326" y="166" width="174" height="120" rx="24" fill="#111827" stroke="rgba(139,92,246,0.25)"/>
  <text x="354" y="210" fill="#CBD5E1" font-family="Inter, Arial, sans-serif" font-size="16" font-weight="600">Users</text>
  <text x="354" y="258" fill="#FFFFFF" font-family="Inter, Arial, sans-serif" font-size="42" font-weight="800">1.2k</text>
  <rect x="526" y="166" width="174" height="120" rx="24" fill="#111827" stroke="rgba(59,130,246,0.25)"/>
  <text x="554" y="210" fill="#CBD5E1" font-family="Inter, Arial, sans-serif" font-size="16" font-weight="600">Courses</text>
  <text x="554" y="258" fill="#FFFFFF" font-family="Inter, Arial, sans-serif" font-size="42" font-weight="800">64</text>
  <rect x="726" y="166" width="174" height="120" rx="24" fill="#111827" stroke="rgba(56,189,248,0.24)"/>
  <text x="754" y="210" fill="#CBD5E1" font-family="Inter, Arial, sans-serif" font-size="16" font-weight="600">Roles</text>
  <text x="754" y="258" fill="#FFFFFF" font-family="Inter, Arial, sans-serif" font-size="42" font-weight="800">5</text>
  <rect x="326" y="330" width="574" height="214" rx="26" fill="#050505" stroke="rgba(255,255,255,0.1)"/>
  <text x="360" y="380" fill="#E5E7EB" font-family="Inter, Arial, sans-serif" font-size="20" font-weight="700">Module Responsibility Flow</text>
  <rect x="360" y="426" width="472" height="18" rx="9" fill="#1E293B"/>
  <rect x="360" y="426" width="336" height="18" rx="9" fill="#8B5CF6"/>
  <rect x="360" y="478" width="472" height="18" rx="9" fill="#1E293B"/>
  <rect x="360" y="478" width="392" height="18" rx="9" fill="#3B82F6"/>
  <circle cx="854" cy="374" r="36" fill="rgba(139,92,246,0.18)"/>
</svg>
