<svg width="1200" height="760" viewBox="0 0 1200 760" fill="none" xmlns="http://www.w3.org/2000/svg">
  <rect width="1200" height="760" rx="42" fill="#07070A"/>
  <rect x="34" y="34" width="1132" height="692" rx="34" fill="#0B1020" stroke="rgba(255,255,255,0.12)" stroke-width="2"/>
  <rect x="34" y="34" width="1132" height="88" rx="34" fill="#0F172A"/>
  <circle cx="84" cy="78" r="10" fill="#F87171"/>
  <circle cx="118" cy="78" r="10" fill="#FBBF24"/>
  <circle cx="152" cy="78" r="10" fill="#34D399"/>
  <text x="210" y="87" fill="#E5E7EB" font-family="Inter, Arial, sans-serif" font-size="28" font-weight="700">RightToKnow Command Center</text>
  <rect x="72" y="164" width="246" height="502" rx="28" fill="#050505" stroke="rgba(255,255,255,0.1)"/>
  <text x="102" y="212" fill="#93C5FD" font-family="Inter, Arial, sans-serif" font-size="20" font-weight="700">RTI Modules</text>
  <rect x="102" y="252" width="168" height="18" rx="9" fill="#3B82F6"/>
  <rect x="102" y="302" width="126" height="18" rx="9" fill="#334155"/>
  <rect x="102" y="352" width="150" height="18" rx="9" fill="#334155"/>
  <rect x="102" y="402" width="110" height="18" rx="9" fill="#334155"/>
  <rect x="354" y="164" width="236" height="152" rx="28" fill="#111827" stroke="rgba(59,130,246,0.28)"/>
  <text x="386" y="214" fill="#CBD5E1" font-family="Inter, Arial, sans-serif" font-size="18" font-weight="600">Citizen Requests</text>
  <text x="386" y="272" fill="#FFFFFF" font-family="Inter, Arial, sans-serif" font-size="54" font-weight="800">248</text>
  <rect x="620" y="164" width="236" height="152" rx="28" fill="#111827" stroke="rgba(139,92,246,0.28)"/>
  <text x="652" y="214" fill="#CBD5E1" font-family="Inter, Arial, sans-serif" font-size="18" font-weight="600">Departments</text>
  <text x="652" y="272" fill="#FFFFFF" font-family="Inter, Arial, sans-serif" font-size="54" font-weight="800">32</text>
  <rect x="886" y="164" width="236" height="152" rx="28" fill="#111827" stroke="rgba(56,189,248,0.25)"/>
  <text x="918" y="214" fill="#CBD5E1" font-family="Inter, Arial, sans-serif" font-size="18" font-weight="600">AI Drafts</text>
  <text x="918" y="272" fill="#FFFFFF" font-family="Inter, Arial, sans-serif" font-size="54" font-weight="800">89</text>
  <rect x="354" y="356" width="768" height="310" rx="30" fill="#050505" stroke="rgba(255,255,255,0.1)"/>
  <text x="394" y="412" fill="#E5E7EB" font-family="Inter, Arial, sans-serif" font-size="22" font-weight="700">Request Tracking</text>
  <rect x="394" y="462" width="688" height="22" rx="11" fill="#1E293B"/>
  <rect x="394" y="462" width="512" height="22" rx="11" fill="#3B82F6"/>
  <rect x="394" y="526" width="688" height="22" rx="11" fill="#1E293B"/>
  <rect x="394" y="526" width="428" height="22" rx="11" fill="#8B5CF6"/>
  <rect x="394" y="590" width="688" height="22" rx="11" fill="#1E293B"/>
  <rect x="394" y="590" width="598" height="22" rx="11" fill="#38BDF8"/>
  <circle cx="1012" cy="418" r="72" fill="rgba(59,130,246,0.16)"/>
  <circle cx="1012" cy="418" r="40" fill="rgba(139,92,246,0.22)"/>
</svg>
