<svg width="1000" height="620" viewBox="0 0 1000 620" fill="none" xmlns="http://www.w3.org/2000/svg">
  <rect width="1000" height="620" rx="36" fill="#07070A"/>
  <rect x="42" y="42" width="916" height="536" rx="34" fill="#0B1020" stroke="rgba(255,255,255,0.12)" stroke-width="2"/>
  <rect x="98" y="108" width="338" height="384" rx="34" fill="#050505" stroke="rgba(59,130,246,0.22)"/>
  <circle cx="267" cy="236" r="92" fill="rgba(59,130,246,0.12)" stroke="#3B82F6" stroke-width="6"/>
  <path d="M205 312C245 356 304 356 344 312" stroke="#8B5CF6" stroke-width="14" stroke-linecap="round"/>
  <rect x="202" y="378" width="130" height="48" rx="24" fill="#111827" stroke="rgba(255,255,255,0.12)"/>
  <text x="234" y="409" fill="#E5E7EB" font-family="Inter, Arial, sans-serif" font-size="18" font-weight="700">ESP32</text>
  <text x="500" y="142" fill="#F8FAFC" font-family="Inter, Arial, sans-serif" font-size="34" font-weight="800">Physiotherapy Prototype</text>
  <text x="502" y="184" fill="#94A3B8" font-family="Inter, Arial, sans-serif" font-size="18">Real-time sensor assisted rehabilitation tracking</text>
  <rect x="504" y="238" width="360" height="70" rx="22" fill="#111827" stroke="rgba(255,255,255,0.1)"/>
  <text x="532" y="282" fill="#CBD5E1" font-family="Inter, Arial, sans-serif" font-size="18" font-weight="700">Flex Sensor Input</text>
  <rect x="504" y="338" width="360" height="70" rx="22" fill="#111827" stroke="rgba(255,255,255,0.1)"/>
  <text x="532" y="382" fill="#CBD5E1" font-family="Inter, Arial, sans-serif" font-size="18" font-weight="700">Force Feedback</text>
  <rect x="504" y="438" width="360" height="70" rx="22" fill="#111827" stroke="rgba(255,255,255,0.1)"/>
  <text x="532" y="482" fill="#CBD5E1" font-family="Inter, Arial, sans-serif" font-size="18" font-weight="700">Motor Assistance</text>
  <path d="M436 300C468 300 472 274 504 274" stroke="#3B82F6" stroke-width="3" stroke-dasharray="8 8"/>
  <path d="M436 300C468 300 472 374 504 374" stroke="#8B5CF6" stroke-width="3" stroke-dasharray="8 8"/>
  <path d="M436 300C468 300 472 474 504 474" stroke="#38BDF8" stroke-width="3" stroke-dasharray="8 8"/>
</svg>
