<svg xmlns="http://www.w3.org/2000/svg" viewBox="0 0 128 128"><path fill-rule="evenodd" clip-rule="evenodd" fill="#fff" d="M64 5.1C29.5 5.1 1.6 33 1.6 67.5c0 27.6 17.9 51 42.7 59.3 3.1.6 4.3-1.4 4.3-3 0-1.5-.1-6.4-.1-11.5-15.6 2.9-19.7-3.8-21-7.3-.7-1.8-3.7-7.3-6.3-8.8-2.2-1.2-5.2-4-.1-4.1 4.9-.1 8.3 4.5 9.5 6.3 5.5 9.3 14.3 6.7 17.9 5.1.5-4 2.2-6.7 3.9-8.2-13.6-1.5-27.8-6.8-27.8-30.2 0-6.7 2.4-12.2 6.3-16.5-.6-1.5-2.7-7.8.6-16.3 0 0 5.1-1.6 16.8 6.3 4.9-1.4 10.1-2 15.3-2s10.4.7 15.3 2c11.7-8 16.8-6.3 16.8-6.3 3.4 8.5 1.3 14.8.6 16.3 3.9 4.3 6.3 9.7 6.3 16.5 0 23.5-14.3 28.7-27.9 30.2 2.2 1.9 4.1 5.6 4.1 11.3 0 8.2-.1 14.7-.1 16.8 0 1.6 1.2 3.6 4.3 3 24.8-8.3 42.5-31.8 42.5-59.3C126.4 33 98.5 5.1 64 5.1z"/></svg>
