<svg xmlns="http://www.w3.org/2000/svg" viewBox="0 0 128 128"><path fill="#F0DB4F" d="M2 1v125h125V1H2z"/><path fill="#323330" d="M100.3 98.1c-1.1-6.6-5.5-12.2-18.6-17.4-4.6-2.2-9.6-3.7-11.1-7.2-.6-2-.6-3.1-.4-4.3.6-3.2 3.5-4.2 5.8-3.3 1.5.6 2.9 2 3.8 4.3 4-2.6 4-2.6 6.8-4.4-1-1.6-1.6-2.3-2.3-3.2-2.5-2.8-5.5-4.2-10.5-4.1l-2.6.3c-2.5.6-4.8 1.9-6.2 3.8-4 5.2-2.8 14.3 2 18.1 4.7 4 11.6 4.9 15.7 8.4 1.6 2.4 1.1 5.5-.6 7.3-3.4 3-9.5 2.3-12.7-1.5-1.3-2.1-1.9-3.3-2-3.3l-7.3 4.2c.9 2 1.8 2.9 3.3 4.7 7 7.3 24.5 6.9 27.6-4.2.1-.4 1.2-3.4.3-7.9zM69.6 49.5H61c0 8.1-.1 16.1-.1 24.2 0 5.1.3 9.8-.5 11.3-1.3 2.7-4.6 2.4-6.1 1.9-1.6-.8-2.3-1.8-3.2-3.4-.2-.5-.4-.9-.5-.9l-7.2 4.4c1.2 2.5 2.9 4.7 5.2 6.1 3.4 2 7.9 2.6 12.7 1.1 3.1-1.2 5.8-3.7 6.7-7.6 1.3-3.5 1-7.7 1-12.4-.1-8.2 0-16.4 0-24.7z"/></svg>
