<svg xmlns="http://www.w3.org/2000/svg" viewBox="0 0 128 128"><path fill="#47A248" d="M65.5 2.42c-.84 1.17-1.12 2.5-1.65 3.78-3.37 8.23-6.2 16.67-10.3 24.57-2.63 5.04-5.77 9.81-9.55 14.08-1.75 1.97-3.53 3.94-5.01 6.11-3.96 5.81-5.96 12.21-6.56 19.12-.86 9.91.92 19.32 5.02 28.33 3.72 8.19 9.09 15.18 16.02 20.97 1.05.88 2.15 1.69 3.22 2.53.16-.08.31-.15.47-.23V90.7c-3.72-.6-6.43-2.63-8.38-5.75-2.01-3.22-2.76-6.83-2.81-10.61-.06-4.57.82-8.94 2.75-13.06 2.52-5.39 5.66-10.42 9.48-15.05 1.38-1.68 2.58-3.48 3.63-5.38 3.32-6.01 4.69-12.54 5.09-19.32.15-2.51.06-5.03.06-7.55.01 0 .01-.01-.02-.01-.63-2.02-1.09-4.09-1.46-6.18z"/><path fill="#47A248" d="M65.5 2.42c.37 2.09.83 4.16 1.46 6.18-.01.34.07.68.2 1 2.21 8.44 3.05 17.06 2.42 25.83-.37 5.17-1.51 10.16-3.78 14.85-1.05 2.17-2.35 4.19-3.73 6.14-3.67 5.21-6.88 10.68-9.19 16.62-1.66 4.28-2.67 8.7-2.54 13.34.09 3.32.66 6.53 2.11 9.51 1.7 3.49 4.37 5.92 8.18 6.81V123.6c.32.19.64.38.96.57l.55-.3c1.73-1.12 3.51-2.19 5.19-3.4 7.56-5.47 13.5-12.3 17.66-20.54 3.57-7.08 5.62-14.59 6.19-22.49.4-5.51-.03-10.93-1.6-16.22-1.42-4.79-3.68-9.15-6.83-13.05-2.04-2.53-4.14-5.03-5.94-7.72-4.76-7.11-7.96-14.87-10.16-23.05-.36-1.36-.66-2.73-1.15-4.61z"/><path fill="#3F9E3C" d="M66.33 123.17c-.32-.19-.64-.38-.96-.57v.92l.96-.35z"/></svg>
