<svg xmlns="http://www.w3.org/2000/svg" viewBox="0 0 128 128"><circle cx="64" cy="64" r="56" fill="#0055A4" opacity=".15"/><path fill="#5C9FD8" d="M64 14c-27.6 0-50 22.4-50 50s22.4 50 50 50 50-22.4 50-50S91.6 14 64 14zm0 90c-22.1 0-40-17.9-40-40s17.9-40 40-40 40 17.9 40 40-17.9 40-40 40z"/><circle cx="64" cy="64" r="24" fill="#5C9FD8"/><path fill="#5C9FD8" d="M64 28v-14M64 114v-14M28 64H14M114 64h-14" stroke="#5C9FD8" stroke-width="6" stroke-linecap="round"/><circle cx="64" cy="64" r="8" fill="#fff"/></svg>
