<svg xmlns="http://www.w3.org/2000/svg" viewBox="0 0 128 128"><path fill="#3776AB" d="M49.33 62h29.16C86.7 62 93 55.7 93 47.5V18.36C93 10.47 86.53 4.5 78.6 3.16c-5.3-.9-10.6-1.25-15.87-1.15C57.47 2.1 52.2 2.6 47.4 3.87c-14.1 3.67-16.6 11.35-16.6 18.49V33.4h33.2v4.93H30.64C17.74 38.33 6.47 45.44 2.76 60.57c-4.28 17.34-4.47 28.17 0 46.26C6 118.7 15.37 126 28.27 126h11.86V110.5c0-14.3 12.37-26.9 26.87-26.9h29.16c12.4 0 21.84-10.2 21.84-22.58V32.15c0-12.03-10.15-21.06-21.84-23.29-7.38-1.4-15.05-1.56-22.83 0C61.78 11.1 49.33 20.57 49.33 32.15V62zm17.95-36.8c-4.5 0-8.16-3.72-8.16-8.28s3.66-8.38 8.16-8.38c4.5 0 8.16 3.82 8.16 8.38s-3.66 8.28-8.16 8.28z"/><path fill="#FFD43B" d="M126.33 63.47c-3.42-12.46-9.91-18.7-22.23-18.7H93v14.5c0 15.06-12.8 27.83-27.2 27.83H36.63c-12.18 0-21.83 10.42-21.83 22.61v42.29c0 12.04 10.47 19.12 22.23 22.6 14.05 4.17 27.53 4.93 44.4 0 11.22-3.27 21.83-9.87 21.83-22.6V117.6H70.07v-4.93h44.4c12.92 0 17.74-9.01 22.23-22.6 4.62-14.01 4.43-27.46 0-46.26-.02-.08-.23-.35-.37-.34zM80.07 104.6c4.5 0 8.16 3.72 8.16 8.28 0 4.57-3.66 8.38-8.16 8.38-4.5 0-8.16-3.82-8.16-8.38 0-4.56 3.66-8.28 8.16-8.28z"/></svg>
