<svg xmlns="http://www.w3.org/2000/svg" viewBox="0 0 128 128" fill="#61DAFB"><circle cx="64" cy="64" r="11.4"/><path d="M107.3 45.2c-2.2-.8-4.5-1.6-6.9-2.3.6-2.6 1.1-5.2 1.5-7.6 2.1-13.3.5-22.6-4.5-25.5-1.4-.8-3-1.2-4.8-1.2-5.6 0-12.7 3.8-19.9 10.2-2.5 2.2-5 4.7-7.4 7.5-2.4-2.7-4.9-5.3-7.4-7.5C50.7 12 43.5 8.2 37.9 8.2c-1.8 0-3.4.4-4.8 1.2-5 2.9-6.6 12.2-4.5 25.5.4 2.4.9 4.9 1.5 7.6-2.4.7-4.7 1.5-6.9 2.3C10.8 49.8 2 56.3 2 64s8.8 14.2 21.2 18.8c2.2.8 4.5 1.6 6.9 2.3-.6 2.6-1.1 5.2-1.5 7.6-2.1 13.3-.5 22.6 4.5 25.5 1.4.8 3 1.2 4.8 1.2 5.6 0 12.7-3.8 19.9-10.2 2.5-2.2 5-4.7 7.4-7.5 2.4 2.7 4.9 5.3 7.4 7.5 5.2 4.6 10.2 7.8 14.4 9.3 1.8.6 3.5.9 5 .9h.5c1.8 0 3.4-.4 4.8-1.2 5-2.9 6.6-12.2 4.5-25.5-.4-2.4-.9-4.9-1.5-7.6 2.4-.7 4.7-1.5 6.9-2.3C117.2 78.2 126 71.7 126 64s-8.8-14.2-21.2-18.8zM92.5 14.7c4 2.3 5.3 10.6 3.4 22.6-.4 2.2-.8 4.6-1.4 7.1-5-1.2-10.5-2-16.2-2.6-3.4-4.7-6.9-9-10.5-12.8 2.3-2.6 4.6-4.9 6.9-6.8C80.9 17 87 13.6 91.3 13.6c.4 0 .8.1 1.2.1zM45.8 65.6c1.7 3 3.5 5.9 5.4 8.7-5.6-.6-10.8-1.6-15.5-3 1.4-4.3 3.2-8.9 5.3-13.6 1.5 2.6 3.1 5.3 4.8 7.9zm-4.7-21c4.7-1.4 9.9-2.4 15.5-3-1.9 2.8-3.7 5.7-5.4 8.7-1.7 2.6-3.3 5.3-4.8 7.9-2.1-4.6-3.9-9.2-5.3-13.6zM35.3 64c-1.4-3.7-2.5-7.3-3.4-10.7 3.1-1 6.5-1.9 10.1-2.6-1.3 2.1-2.5 4.4-3.7 6.6-1.2 2.2-2.1 4.5-3 6.7zm5.3 18.7c-3.6-.7-7-1.6-10.1-2.6.9-3.4 2-7 3.4-10.7.9 2.2 1.8 4.5 3 6.7 1.2 2.2 2.4 4.4 3.7 6.6zM64 97.8c-2.4-2.6-4.7-5.4-6.9-8.3 2.3.1 4.6.2 6.9.2s4.6-.1 6.9-.2c-2.2 2.9-4.5 5.7-6.9 8.3zm18.1-12.2c5.6.6 10.8 1.6 15.5 3-1.4 4.3-3.2 8.9-5.3 13.6-1.5-2.6-3.1-5.3-4.8-7.9-1.7-3-3.5-5.9-5.4-8.7zm4.7-21.1c-4.7 1.4-9.9 2.4-15.5 3 1.9-2.8 3.7-5.7 5.4-8.7 1.7-2.6 3.3-5.3 4.8-7.9 2.1 4.7 3.9 9.3 5.3 13.6zm-37.4-4.9c1.3-2.2 2.5-4.4 3.7-6.6 1.2-2.2 2.4-4.4 3.7-6.6 2.6-.2 5.2-.3 7.9-.3s5.3.1 7.9.3c1.3 2.2 2.5 4.4 3.7 6.6 1.2 2.2 2.4 4.4 3.7 6.6-1.3 2.2-2.5 4.4-3.7 6.6-1.2 2.2-2.4 4.4-3.7 6.6-2.6.2-5.2.3-7.9.3s-5.3-.1-7.9-.3c-1.3-2.2-2.5-4.4-3.7-6.6-1.2-2.2-2.4-4.4-3.7-6.6zm67.1-18.2c.9 3.4 2 7 3.4 10.7-.9-2.2-1.8-4.5-3-6.7-1.2-2.2-2.4-4.4-3.7-6.6 3.6.7 7 1.6 10.1 2.6-.9 3.4-2 7-3.4 10.7zM92.7 64c1.4 3.7 2.5 7.3 3.4 10.7-3.1 1-6.5 1.9-10.1 2.6 1.3-2.1 2.5-4.4 3.7-6.6 1.2-2.2 2.1-4.5 3-6.7zM64 30.2c2.4 2.6 4.7 5.4 6.9 8.3-2.3-.1-4.6-.2-6.9-.2s-4.6.1-6.9.2c2.2-2.9 4.5-5.7 6.9-8.3zM36.5 14.7c.4 0 .8-.1 1.2-.1 4.3 0 10.4 3.4 16.6 8.6 2.3 1.9 4.6 4.2 6.9 6.8-3.6 3.8-7.1 8.1-10.5 12.8-5.7.6-11.2 1.4-16.2 2.6-.5-2.5-1-4.9-1.4-7.1-1.9-12 .5-20.3 3.4-22.6zM9.1 64c0-5.5 7.4-11.3 19.6-15.3 2.1-.7 4.3-1.4 6.6-2 1.7 5.5 3.9 11.2 6.6 17-2.7 5.8-4.9 11.5-6.6 17-2.3-.6-4.5-1.3-6.6-2C16.5 75.3 9.1 69.5 9.1 64zm89.2 15.3C110.6 75.3 118 69.5 118 64s-7.4-11.3-19.6-15.3c-2.1-.7-4.3-1.4-6.6-2-1.7 5.5-3.9 11.2-6.6 17 2.7 5.8 4.9 11.5 6.6 17 2.3-.6 4.5-1.3 6.6-2zm-1.8 33.3c-4 2.3-12.2-.7-21.4-8.7-2.3-1.9-4.6-4.2-6.9-6.8 3.6-3.8 7.1-8.1 10.5-12.8 5.7-.6 11.2-1.4 16.2-2.6.5 2.5 1 4.9 1.4 7.1 1.9 12-.5 20.3-3.4 22.6-.1.1-.2.1-.4.2z" fill="#61DAFB"/></svg>
